<svg height="800" viewBox="0 0 512 512" width="800" xmlns="http://www.w3.org/2000/svg"><path d="m426.666667 85.3333333v255.9999997h-64.040365l.040365 64-106.666667-64h-85.333333v-255.9999997zm-170.666667-85.3333333v64h-106.666667l-.000333 204.8-85.333 51.2.0403648-64h-64.0403648v-256zm55.198683 149.333333h-24.931546l-47.333804 128h22.49259l13.098095-36.674664h48.056457l13.188426 36.674664h23.847566zm-12.646436 21.40861c1.949658 6.533992 4.014584 12.97577 6.194777 19.325335l.941426 2.715597 10.74947 30.351446h-35.861679l10.749471-30.351446c3.011056-8.370737 5.419901-15.717714 7.226535-22.040932zm-181.521298-136.2028273h-21.3333332l-.0002582 10.666-53.3330751.0006667v21.3333333l79.6314335.0009691c-1.279348 18.168401-5.88876 34.5332612-13.821526 49.1939142-8.613398-11.846524-14.546943-25.0878557-17.8369317-39.8061806l-.2108169-.9619856-20.8576512 4.4798992 1.5649739 6.5125565c4.7497758 17.8282845 12.9444899 33.8934195 24.5448837 48.1036375-12.5817903 13.576768-30.6117821 23.099825-54.4213505 28.527066l-.9069397.204128 4.6278498 20.825324 6.3679799-1.532665c24.8508454-6.455694 44.6841404-17.355795 59.2443527-32.733931 10.204769 8.801568 22.850577 17.121536 37.934042 25.002673l1.108019.575886-.000152-24.292955c-10.321016-5.945259-19.024238-12.058037-26.111399-18.314499 11.763289-19.11634 18.453501-40.7286178 20.083002-64.6919844l.070583-1.0908626 5.957723-.0009903v-21.334h-32.302z" fill-rule="evenodd" transform="translate(42.666667 85.333333)"/></svg>